<?xml version="1.0" encoding="UTF-8"?>
<svg data-name="Layer 2" xmlns="http://www.w3.org/2000/svg" viewBox="0 0 777.49 208.12">
  <defs>
    <style>
      .cls-1 {
        fill: #89c4f4;
      }
    </style>
  </defs>
  <g>
    <path class="cls-1" d="m741.91,134.72c-5.08,2.33-8.9,3.5-11.44,3.5-4.87,0-7.31-3.18-7.31-9.53V59.42c0-32.62-16.42-48.93-49.25-48.93h-4.45c-1.48,0-3.07.11-4.77.32-14.62,1.48-27.64,6.57-39.08,15.25-11.44,8.69-19.49,21.29-24.15,37.81l35.59,11.76c2.33-7.2,5.56-13.03,9.69-17.48s8.84-6.88,14.14-7.31c.64,0,1.27-.05,1.91-.16.64-.1,1.16-.16,1.59-.16,4.87,0,8.58,1.17,11.12,3.5,2.54,2.33,3.81,5.51,3.81,9.53,0,4.45-1.38,8-4.13,10.64-2.76,2.65-6.57,5.14-11.44,7.47l-14.3,6.67c-16.31,7.63-28.65,15.62-37.02,23.99-8.37,8.37-12.55,19.75-12.55,34.16,0,28.39,13.34,42.58,40.03,42.58h3.81c1.27,0,2.54-.11,3.81-.32,10.17-.85,18.95-3.28,26.37-7.31,7.41-4.02,13.03-9.74,16.84-17.16,1.48,4.45,4.66,7.94,9.53,10.49,4.87,2.54,10.59,3.81,17.16,3.81,6.99,0,13.66-1.37,20.02-4.13l4.45-39.72Z"/>
    <path d="m56.56,189.37v-48.3l-24.78,1.27L0,126.46v-51.47l56.56-4.13V4.45L106.44,0l31.77,15.89v47.66l26.37-1.59,31.77,15.89v51.47l-58.15,4.45v66.72l-49.88,4.45-31.77-15.57Zm104.85-78.8v-45.12l-58.15,4.45V3.5l-43.53,3.81v66.41l-56.56,4.13v45.12l56.56-4.13v67.04l43.53-3.81v-67.04l58.15-4.45Z"/>
    <path class="cls-1" d="m352.69,134.72c-5.08,2.33-8.9,3.5-11.44,3.5-4.88,0-7.31-3.18-7.31-9.53V59.42c0-32.62-16.42-48.93-49.25-48.93h-4.45c-1.48,0-3.07.11-4.77.32-14.62,1.48-27.64,6.57-39.08,15.25-11.44,8.69-19.49,21.29-24.15,37.81l35.59,11.76c2.33-7.2,5.56-13.03,9.69-17.48,4.13-4.45,8.84-6.88,14.14-7.31.64,0,1.27-.05,1.91-.16.64-.1,1.16-.16,1.59-.16,4.87,0,8.58,1.17,11.12,3.5,2.54,2.33,3.81,5.51,3.81,9.53,0,4.45-1.38,8-4.13,10.64-2.76,2.65-6.57,5.14-11.44,7.47l-14.3,6.67c-16.31,7.63-28.65,15.62-37.02,23.99-8.37,8.37-12.55,19.75-12.55,34.16,0,28.39,13.34,42.58,40.03,42.58h3.81c1.27,0,2.54-.11,3.81-.32,10.17-.85,18.95-3.28,26.37-7.31,7.41-4.02,13.03-9.74,16.84-17.16,1.48,4.45,4.66,7.94,9.53,10.49,4.87,2.54,10.59,3.81,17.16,3.81,6.99,0,13.66-1.37,20.02-4.13l4.45-39.72Z"/>
    <path d="m383.19,192.23c-6.78,2.75-13.77,4.13-20.97,4.13-6.57,0-12.61-.9-18.11-2.7-5.51-1.8-9.75-3.55-12.71-5.24-9.32,11.22-22.99,17.68-40.99,19.38-1.7.21-3.39.32-5.08.32h-5.08c-13.14,0-25.21-2.28-36.22-6.83-11.02-4.56-19.86-11.44-26.53-20.65-6.67-9.21-10.01-20.6-10.01-34.16,0-14.62,4.08-26.26,12.23-34.95,8.15-8.68,20.38-16.94,36.7-24.78l-16.2-5.4-31.77-15.89c5.29-18.43,13.93-32.3,25.9-41.62,11.96-9.32,25.58-14.72,40.83-16.2,1.91-.21,3.81-.37,5.72-.48,1.91-.1,3.7-.16,5.4-.16,15.25,0,29.12,2.81,41.62,8.42,12.5,5.62,22.45,13.56,29.87,23.83,7.41,10.28,11.12,22.3,11.12,36.06v60.37l19.38,9.53-5.08,47.03Zm-30.5-57.51c-5.08,2.33-8.9,3.5-11.44,3.5-4.88,0-7.31-3.18-7.31-9.53V59.42c0-32.62-16.42-48.93-49.25-48.93h-4.45c-1.48,0-3.07.11-4.77.32-14.62,1.48-27.64,6.57-39.08,15.25-11.44,8.69-19.49,21.29-24.15,37.81l35.59,11.76c2.33-7.2,5.56-13.03,9.69-17.48,4.13-4.45,8.84-6.88,14.14-7.31.64,0,1.27-.05,1.91-.16.64-.1,1.16-.16,1.59-.16,4.87,0,8.58,1.17,11.12,3.5,2.54,2.33,3.81,5.51,3.81,9.53,0,4.45-1.38,8-4.13,10.64-2.76,2.65-6.57,5.14-11.44,7.47l-14.3,6.67c-16.31,7.63-28.65,15.62-37.02,23.99-8.37,8.37-12.55,19.75-12.55,34.16,0,28.39,13.34,42.58,40.03,42.58h3.81c1.27,0,2.54-.11,3.81-.32,10.17-.85,18.95-3.28,26.37-7.31,7.41-4.02,13.03-9.74,16.84-17.16,1.48,4.45,4.66,7.94,9.53,10.49,4.87,2.54,10.59,3.81,17.16,3.81,6.99,0,13.66-1.37,20.02-4.13l4.45-39.72Zm-85.47,17.16c-3.6,0-6.57-1-8.9-3.02-2.33-2.01-3.5-4.93-3.5-8.74,0-9.1,4.66-15.89,13.98-20.34l6.35-3.18c2.96-1.48,5.88-2.91,8.74-4.29,2.86-1.38,5.03-2.91,6.51-4.61v21.92c-1.06,6.57-3.6,11.81-7.63,15.73-4.03,3.92-8.47,6.09-13.34,6.51h-2.22Z"/>
    <path d="m490.9,185.24v-99.45c-2.54,2.54-4.13,5.51-4.77,8.9v105.49l-47.98,4.77-31.77-15.89V14.62l48.61-4.45,10.17,8.26c3.6-2.96,7.52-5.66,11.76-8.1,4.24-2.43,9.32-3.86,15.25-4.29,1.06,0,2.01-.05,2.86-.16.84-.1,1.69-.16,2.54-.16,9.53,0,18.91,1.7,28.12,5.08,9.21,3.39,17.48,8.1,24.78,14.14s13.13,13.08,17.48,21.13c4.34,8.05,6.51,16.74,6.51,26.05v124.24l-51.79,4.45-31.77-15.57Zm48.61-134.08c0-14.62-3.97-25.31-11.92-32.09-7.94-6.78-17.74-10.17-29.39-10.17h-2.7c-.95,0-1.96.11-3.02.32-10.38.85-19.17,4.82-26.37,11.92-7.2,7.1-11.65,15.31-13.34,24.62h-.95V13.66l-42.26,3.81v168.4l45.44-4.13v-103.26c1.06-5.08,3.44-9.74,7.15-13.98,3.7-4.23,8.52-6.67,14.46-7.31h1.27c4.45,0,8.26,1.54,11.44,4.61,3.18,3.07,4.77,8.1,4.77,15.09v104.85l45.44-4.13V51.16Z"/>
    <path d="m772.41,192.23c-6.78,2.75-13.77,4.13-20.97,4.13-6.57,0-12.61-.9-18.11-2.7-5.51-1.8-9.75-3.55-12.71-5.24-9.32,11.22-22.99,17.68-40.99,19.38-1.7.21-3.39.32-5.08.32h-5.08c-13.14,0-25.21-2.28-36.22-6.83-11.02-4.56-19.86-11.44-26.53-20.65-6.67-9.21-10.01-20.6-10.01-34.16,0-14.62,4.08-26.26,12.23-34.95,8.15-8.68,20.39-16.94,36.7-24.78l-16.2-5.4-31.77-15.89c5.29-18.43,13.93-32.3,25.9-41.62,11.96-9.32,25.58-14.72,40.83-16.2,1.91-.21,3.81-.37,5.72-.48,1.91-.1,3.7-.16,5.4-.16,15.25,0,29.12,2.81,41.62,8.42,12.5,5.62,22.45,13.56,29.87,23.83,7.41,10.28,11.12,22.3,11.12,36.06v60.37l19.38,9.53-5.08,47.03Zm-30.5-57.51c-5.08,2.33-8.9,3.5-11.44,3.5-4.87,0-7.31-3.18-7.31-9.53V59.42c0-32.62-16.42-48.93-49.25-48.93h-4.45c-1.48,0-3.07.11-4.77.32-14.62,1.48-27.64,6.57-39.08,15.25-11.44,8.69-19.49,21.29-24.15,37.81l35.59,11.76c2.33-7.2,5.56-13.03,9.69-17.48s8.84-6.88,14.14-7.31c.64,0,1.27-.05,1.91-.16.64-.1,1.16-.16,1.59-.16,4.87,0,8.58,1.17,11.12,3.5,2.54,2.33,3.81,5.51,3.81,9.53,0,4.45-1.38,8-4.13,10.64-2.76,2.65-6.57,5.14-11.44,7.47l-14.3,6.67c-16.31,7.63-28.65,15.62-37.02,23.99-8.37,8.37-12.55,19.75-12.55,34.16,0,28.39,13.34,42.58,40.03,42.58h3.81c1.27,0,2.54-.11,3.81-.32,10.17-.85,18.95-3.28,26.37-7.31,7.41-4.02,13.03-9.74,16.84-17.16,1.48,4.45,4.66,7.94,9.53,10.49,4.87,2.54,10.59,3.81,17.16,3.81,6.99,0,13.66-1.37,20.02-4.13l4.45-39.72Zm-85.47,17.16c-3.6,0-6.57-1-8.9-3.02-2.33-2.01-3.5-4.93-3.5-8.74,0-9.1,4.66-15.89,13.98-20.34l6.35-3.18c2.96-1.48,5.88-2.91,8.74-4.29,2.86-1.38,5.03-2.91,6.51-4.61v21.92c-1.06,6.57-3.6,11.81-7.63,15.73-4.03,3.92-8.47,6.09-13.34,6.51h-2.22Z"/>
    <path class="cls-1" d="m539.51,51.16c0-14.62-3.97-25.31-11.92-32.09-7.94-6.78-17.74-10.17-29.39-10.17h-2.7c-.95,0-1.96.11-3.02.32-10.38.85-19.17,4.82-26.37,11.92-7.2,7.1-11.65,15.31-13.34,24.62h-.95V13.66l-42.26,3.81v168.4l45.44-4.13v-103.26c1.06-5.08,3.44-9.74,7.15-13.98,3.7-4.23,8.52-6.67,14.46-7.31h1.27c4.45,0,8.26,1.54,11.44,4.61,3.18,3.07,4.77,8.1,4.77,15.09v104.85l45.44-4.13V51.16Z"/>
    <polygon class="cls-1" points="161.41 110.57 161.41 65.45 103.26 69.9 103.26 3.5 59.73 7.31 59.73 73.71 3.18 77.85 3.18 122.96 59.73 118.83 59.73 185.88 103.26 182.06 103.26 115.02 161.41 110.57"/>
  </g>
</svg>
